<svg id="Capa_1" enable-background="new 0 0 512 512" height="512" viewBox="0 0 512 512" width="512" xmlns="http://www.w3.org/2000/svg"><g><path d="m-22.351 330.22h321v30h-321z" fill="#97e4fd" transform="matrix(.259 -.966 .966 .259 -231.063 389.312)"/><path d="m-15.111 339.673h321v15h-321z" fill="#7dc1fc" transform="matrix(.259 -.966 .966 .259 -227.584 397.752)"/><path d="m226.147 16.288c-96.045-25.665-196.436 37.874-224.238 141.922l94.855 25.346 79.044 21.122 79.045 21.122 94.854 25.346c27.802-104.049-27.515-209.195-123.56-234.858z" fill="#aae071"/><path d="m349.706 251.145-94.854-25.346c27.803-104.048 14.948-197.847-28.705-209.511 96.045 25.663 151.362 130.809 123.559 234.857z" fill="#73ca7a"/><path d="m226.147 16.288c43.653 11.664 56.508 105.463 28.705 209.512l-79.045-21.122-79.044-21.122c27.802-104.048 85.73-178.933 129.384-167.268z" fill="#e9f6ff"/><path d="m226.147 16.288-50.339 188.39 79.045 21.122c27.802-104.049 14.948-197.848-28.706-209.512z" fill="#d2e4fd"/><circle cx="452" cy="60" fill="#ecbd2c" r="60"/><path d="m380.75 355.394h30v69.212h-30z" fill="#3f6fba" transform="matrix(.867 -.499 .499 .867 -141.732 249.177)"/><path d="m259.773 375h72.954v30h-72.954z" fill="#6fa3fb" transform="matrix(.569 -.822 .822 .569 -193.024 411.794)"/><path d="m512 512h-512v-17c0-49.626 40.374-90 90-90h332c49.626 0 90 40.374 90 90z" fill="#f1d0a4"/><path d="m422 405h-76v107h166v-17c0-49.626-40.374-90-90-90z" fill="#edbb87"/><path d="m452 375h-190.493l-49.369-82.283 25.724-15.434 40.631 67.717h173.507z" fill="#7dc1fc"/><path d="m346 345h106v30h-106z" fill="#6fa3fb"/></g></svg>